 <svg  version="1.0" xmlns="http://www.w3.org/2000/svg"  width="300.000000pt" height="154.000000pt" viewBox="0 0 300.000000 154.000000"  preserveAspectRatio="xMidYMid meet">  <g transform="translate(0.000000,154.000000) scale(0.100000,-0.100000)" fill="#255674" stroke="none"> <path d="M10 993 c0 -295 2 -534 4 -532 7 7 20 546 19 779 -1 171 2 220 13 238 l15 22 1449 0 1450 0 4 -23 c3 -12 8 -229 11 -482 4 -253 8 -462 11 -464 2 -2 4 221 4 497 l0 502 -1490 0 -1490 0 0 -537z"/> <path d="M1862 784 c-32 -34 -51 -63 -48 -71 4 -8 7 -36 7 -61 1 -26 4 -37 6 -24 4 19 7 21 19 11 12 -10 16 -8 21 10 8 30 26 21 39 -19 6 -19 22 -41 34 -49 22 -15 22 -14 15 9 -17 55 -60 97 -97 91 -4 0 -10 8 -13 19 -8 24 24 80 63 110 l26 21 29 -31 c15 -16 45 -37 65 -46 20 -8 48 -25 62 -37 l25 -22 -20 24 c-11 13 -38 32 -60 43 -22 11 -50 33 -63 49 -13 16 -31 29 -40 29 -9 0 -40 -25 -70 -56z"/> <path d="M1300 720 c0 -5 7 -10 15 -10 8 0 31 -14 50 -32 27 -23 36 -38 32 -55 -2 -14 3 -29 14 -39 22 -20 25 -38 5 -31 -15 6 -31 -33 -17 -43 16 -11 21 -40 6 -40 -8 0 -15 -7 -15 -15 0 -8 -9 -15 -20 -15 -24 0 -26 -13 -5 -30 8 -7 15 -22 16 -34 1 -11 7 -1 13 24 l13 45 18 -37 c10 -21 22 -38 27 -38 5 0 13 -11 18 -25 5 -14 14 -25 19 -25 11 0 4 27 -11 46 -14 18 -37 104 -26 98 12 -8 1 36 -13 51 -14 15 -10 25 10 25 11 0 21 6 24 13 3 9 12 8 38 -4 20 -9 42 -13 54 -9 17 6 14 8 -15 14 -19 5 -52 8 -72 8 -39 0 -47 11 -54 65 -2 17 2 21 18 18 12 -3 30 -12 42 -21 11 -9 -1 5 -29 31 -51 49 -98 75 -135 75 -11 0 -20 -4 -20 -10z"/> <path d="M1715 664 c-72 -68 -63 -74 13 -9 35 31 71 75 60 75 -2 0 -35 -30 -73 -66z"/> <path d="M1241 682 c-43 -46 -96 -121 -89 -127 2 -3 34 33 71 80 70 89 79 111 18 47z"/> <path d="M1556 601 c-18 -19 -17 -20 15 -29 21 -6 41 -5 53 0 17 9 15 12 -13 29 -38 23 -34 23 -55 0z"/> <path d="M1974 585 c9 -13 25 -46 36 -72 l21 -48 -5 38 c-5 41 -41 107 -58 107 -6 0 -3 -11 6 -25z"/> <path d="M2233 599 c-18 -5 -33 -13 -33 -18 0 -16 41 -60 75 -81 20 -12 49 -42 66 -66 34 -50 60 -69 106 -79 29 -6 38 -1 108 67 73 68 78 71 91 53 12 -16 12 -22 -1 -41 -20 -31 -19 -34 8 -34 13 0 28 -5 35 -12 9 -9 12 -8 12 7 1 18 3 17 24 -7 13 -15 27 -24 30 -21 10 11 45 -42 46 -69 0 -15 5 -30 10 -33 6 -3 10 3 10 14 0 12 6 21 13 21 18 0 64 -50 70 -75 4 -19 5 -19 6 1 1 23 -65 98 -79 89 -5 -3 -16 8 -25 25 -9 17 -27 36 -40 42 -14 6 -25 15 -25 19 0 4 -13 10 -30 14 -19 4 -30 13 -30 24 0 9 -7 27 -16 39 -9 13 -13 26 -10 29 3 3 8 -1 11 -9 5 -12 14 -14 39 -8 39 9 56 1 111 -49 22 -20 34 -29 28 -21 -7 7 -13 21 -13 31 0 13 11 16 70 15 76 -1 73 2 83 -66 3 -14 5 4 6 39 1 56 -1 62 -16 56 -34 -13 -90 -17 -97 -7 -4 7 -25 9 -54 5 -41 -4 -58 0 -112 27 -67 34 -77 34 -185 12 -35 -7 -37 -9 -18 -16 13 -4 27 -5 32 -2 15 10 81 15 81 6 0 -4 -7 -13 -15 -20 -12 -10 -19 -10 -27 -2 -16 16 -28 15 -28 -2 0 -8 -9 -21 -20 -29 -11 -8 -17 -17 -13 -20 14 -14 -40 -57 -72 -57 -25 0 -40 10 -76 51 -24 29 -52 60 -63 70 -23 22 -12 42 17 33 20 -6 20 -5 8 10 -18 22 -10 29 24 20 27 -7 27 -8 9 -22 -18 -13 -17 -14 11 -7 58 15 67 12 89 -32 32 -62 34 -60 15 15 -18 72 -33 85 -70 59 -18 -13 -26 -13 -52 -2 -49 20 -89 24 -124 14z m72 -29 c-24 -26 -55 -35 -66 -19 -10 16 24 38 60 39 23 0 24 -1 6 -20z"/> <path d="M890 560 c-7 -16 -29 -45 -50 -64 -37 -33 -42 -34 -93 -29 -32 3 -62 1 -73 -5 -16 -10 -12 -11 26 -12 57 -1 41 -10 -70 -40 -47 -12 -96 -26 -109 -29 -21 -6 -19 -9 27 -34 l50 -27 54 21 c44 17 64 20 118 14 122 -14 137 -12 172 22 18 17 53 37 78 43 28 8 57 25 77 47 65 69 63 94 -5 53 -18 -11 -42 -20 -53 -20 -11 0 -17 -4 -14 -10 3 -5 1 -10 -4 -10 -6 0 -11 5 -11 10 0 6 -8 10 -18 10 -21 0 -43 22 -60 63 -15 35 -27 34 -42 -3z m48 -60 c18 -16 39 -30 47 -30 28 0 15 -17 -40 -54 -64 -42 -69 -43 -152 -32 -52 7 -74 4 -129 -14 -72 -23 -106 -21 -84 5 7 8 28 18 49 22 44 9 43 8 61 16 8 3 41 13 73 21 57 14 123 55 134 82 7 18 5 19 41 -16z"/> <path d="M331 513 c5 -32 -2 -55 -16 -49 -22 8 -18 -18 6 -40 13 -11 19 -27 16 -41 -2 -12 0 -20 5 -17 5 3 18 -2 29 -12 18 -16 19 -16 19 9 0 42 12 32 49 -38 36 -67 51 -79 32 -24 -17 51 -61 101 -81 96 -16 -4 -40 27 -40 52 0 11 129 11 135 0 4 -5 -3 -9 -14 -9 -12 0 -21 -4 -21 -10 0 -6 9 -6 26 0 14 6 30 8 35 4 13 -8 50 6 44 17 -4 5 -3 9 2 10 4 0 30 3 58 5 59 6 73 14 22 14 -20 0 -39 5 -42 10 -4 7 -17 1 -33 -15 -17 -17 -31 -23 -41 -18 -9 4 -40 8 -69 9 -43 1 -59 7 -81 28 -27 26 -42 33 -40 19z"/> <path d="M173 477 c-22 -27 -23 -35 -6 -31 10 3 26 -1 37 -9 16 -12 17 -16 5 -38 -8 -13 -15 -25 -15 -27 -1 -2 -17 6 -35 17 -43 27 -83 27 -120 0 -27 -19 -29 -25 -29 -85 0 -35 3 -64 7 -64 4 0 17 10 31 22 13 13 53 39 90 58 78 41 142 120 98 120 -8 0 -23 11 -34 25 -15 19 -22 22 -29 12z m-36 -107 c2 -9 -17 -26 -47 -42 -27 -16 -52 -28 -55 -28 -15 0 -2 55 18 71 26 22 80 22 84 -1z"/> <path d="M1771 464 c-20 -17 -33 -38 -37 -63 -3 -20 -12 -45 -20 -56 -14 -19 -16 -19 -25 -2 -13 23 -29 22 -29 -2 0 -10 9 -21 20 -24 14 -4 20 -14 20 -35 0 -20 11 -42 35 -68 39 -42 44 -32 17 37 -10 27 -22 44 -29 42 -21 -7 -15 31 7 45 11 7 19 9 18 5 -1 -5 3 -19 9 -33 6 -14 15 -34 18 -45 4 -11 9 -15 12 -8 2 6 -3 33 -12 59 -15 45 -13 84 6 84 5 0 9 10 10 23 1 20 2 19 14 -8 14 -29 14 -28 8 20 -3 28 -7 51 -8 53 -1 2 -17 -9 -34 -24z"/> <path d="M1980 456 c0 -7 9 -21 20 -31 20 -18 20 -18 18 8 -2 26 -38 47 -38 23z"/> <path d="M1960 395 c0 -12 -4 -13 -19 -5 -29 15 -34 13 -29 -15 3 -14 1 -25 -4 -25 -5 0 -7 -9 -3 -20 5 -15 3 -18 -10 -14 -12 5 -10 -6 12 -51 15 -31 29 -50 31 -42 2 10 14 15 33 15 25 -1 38 -11 70 -54 47 -64 57 -71 57 -39 0 14 -4 23 -8 20 -4 -3 -24 15 -45 40 -28 34 -43 45 -65 45 -83 0 -78 115 6 136 19 5 22 9 12 15 -21 13 -38 11 -38 -6z"/> <path d="M2131 386 c0 -19 7 -36 23 -51 14 -13 32 -49 41 -80 16 -55 44 -95 65 -95 19 0 10 25 -12 35 -15 7 -29 30 -44 73 -12 35 -31 70 -42 78 -11 8 -23 27 -25 42 l-4 27 -2 -29z"/> <path d="M1084 391 c3 -5 -3 -11 -14 -14 -10 -3 -21 0 -23 7 -3 7 -14 1 -28 -13 -13 -14 -16 -19 -6 -11 15 11 20 10 32 -6 10 -13 14 -14 15 -5 0 7 6 11 15 7 8 -3 15 0 15 7 0 7 5 4 11 -5 5 -10 15 -18 20 -18 6 0 2 14 -8 30 -9 17 -21 30 -26 30 -4 0 -6 -4 -3 -9z"/> <path d="M2872 362 c7 -11 37 -45 66 -76 l52 -58 0 61 c0 69 -3 72 -88 85 -41 6 -43 5 -30 -12z"/> <path d="M2110 348 c0 -4 10 -26 21 -48 14 -27 19 -50 16 -70 -5 -23 -3 -28 8 -23 18 6 18 8 5 53 -9 33 -50 104 -50 88z"/> <path d="M1090 312 c0 -17 -6 -35 -14 -39 -7 -4 -16 -33 -19 -63 -4 -37 -3 -50 3 -40 5 8 10 23 10 32 0 23 46 72 60 63 8 -5 -21 53 -37 74 -2 2 -3 -10 -3 -27z"/> <path d="M2543 327 c15 -6 27 -14 27 -19 0 -4 10 -8 23 -8 19 1 17 4 -13 20 -19 11 -42 19 -50 19 -8 -1 -3 -6 13 -12z"/> <path d="M2556 276 c23 -7 47 -17 55 -21 8 -5 5 1 -5 13 -13 15 -30 22 -55 21 l-36 0 41 -13z"/> <path d="M375 270 c-4 -6 -1 -17 5 -25 11 -13 6 -15 -29 -15 -22 0 -41 -4 -41 -10 0 -5 12 -10 27 -10 14 0 35 -8 46 -17 19 -17 20 -17 14 0 -4 9 -2 17 3 17 6 0 10 9 10 20 0 20 1 20 41 -2 22 -13 45 -33 50 -45 8 -23 29 -32 29 -13 0 15 -63 76 -97 94 -37 19 -49 20 -58 6z"/> <path d="M638 273 c7 -3 19 -18 28 -35 8 -16 18 -27 21 -24 3 3 0 13 -8 22 -12 15 -11 16 11 9 22 -7 23 -6 12 8 -8 9 -19 14 -27 11 -7 -3 -16 -1 -20 5 -3 6 -12 11 -18 10 -8 0 -8 -2 1 -6z"/> <path d="M540 258 c0 -2 9 -15 20 -28 24 -27 29 -70 6 -51 -11 9 -10 4 2 -24 9 -19 21 -35 28 -35 7 0 15 -8 18 -17 5 -12 10 -13 18 -5 8 8 4 19 -16 42 -34 41 -36 66 -3 49 12 -6 18 -8 12 -3 -5 5 -27 25 -47 43 -21 19 -38 32 -38 29z"/> <path d="M2289 176 c13 -16 62 -46 76 -46 3 0 5 5 5 12 0 6 -3 8 -6 5 -4 -4 -19 2 -33 12 -14 10 -33 22 -41 26 -13 8 -13 7 -1 -9z"/> </g> </svg> 